<svg width="71" height="56" viewBox="0 0 71 56" fill="none" xmlns="http://www.w3.org/2000/svg">
<path d="M55.9487 39.3368C56.8936 38.1219 57.744 37.123 58.5 36.0431C59.0399 35.2602 59.7824 34.3017 59.1749 33.3433C58.5675 32.3849 57.5146 33.0599 56.6506 33.1543C56.2416 33.1876 55.8515 33.3413 55.5296 33.5959C55.2077 33.8506 54.9684 34.1948 54.8418 34.5852C52.5012 40.0086 49.4508 45.0971 45.7706 49.7174C44.727 50.9724 43.5752 52.1333 42.3284 53.1866C41.289 54.064 40.3845 53.7671 40.0741 52.4442C39.6151 50.4193 39.3451 48.3945 38.9672 46.2887C38.7647 45.1143 38.5082 43.9399 38.2247 42.536L35.363 44.5879L35.1875 44.4394C35.7814 43.8049 36.3349 43.157 36.9423 42.5495C42.5261 36.7008 49.5588 32.4347 57.3256 30.1846C59.2173 29.7392 61.1327 29.4012 63.0626 29.1722C63.4436 29.1249 63.829 29.1249 64.21 29.1722C65.3169 29.2802 65.7084 29.8876 65.2089 30.8865C64.8309 31.6194 64.3786 32.3115 63.859 32.9519C61.5699 35.4781 58.9011 37.6323 55.9487 39.3368Z" fill="#F4C027"/>
<path d="M11.9695 33.1169C10.0908 34.953 8.54276 37.0993 7.39336 39.4614C7.26454 39.6925 7.19922 39.9536 7.20403 40.2181C7.20884 40.4827 7.28362 40.7412 7.42075 40.9675C7.55788 41.1938 7.75249 41.3797 7.98478 41.5064C8.21707 41.6331 8.47876 41.696 8.74324 41.6887C10.0527 41.7539 11.365 41.7314 12.6714 41.6212C12.8398 41.6074 13.0068 41.5803 13.1709 41.5402L13.2788 41.7967C12.3025 42.3113 11.2814 42.736 10.2281 43.0656C8.5075 43.4666 6.75485 43.7151 4.99057 43.808C2.95224 43.916 1.99383 42.6876 2.73626 40.7843C3.47577 38.9116 4.44619 37.1385 5.62501 35.5062C9.13167 30.92 13.215 26.8049 17.774 23.2628C26.9804 15.6446 37.0743 9.16768 47.8358 3.97298C51.47 2.09458 55.3648 0.770537 59.3908 0.0448174C61.3617 -0.252157 62.0096 0.962738 61.2942 2.62309C60.7072 3.88256 59.7699 4.94635 58.5944 5.68733C58.2839 5.12038 58.041 4.09447 57.609 4.01347C56.5686 3.96919 55.5302 4.1392 54.5583 4.51293C56.6683 5.86579 58.3163 7.82925 59.2829 10.1419C43.3939 18.4229 28.9703 29.2532 16.5861 42.2017L11.9695 33.1169ZM36.9153 13.8541C38.4418 14.8123 40.2719 15.1639 42.0448 14.8395C41.0862 14.5182 40.1774 14.0638 39.3451 13.4897C38.3057 12.5447 37.7387 13.1792 36.9288 13.8271L36.9153 13.8541Z" fill="#B63E92"/>
<path d="M21.5952 54.1466C19.5914 55.6292 17.083 56.2599 14.6163 55.9015C14.3918 55.8962 14.1705 55.8466 13.9652 55.7554C13.76 55.6642 13.5748 55.5332 13.4204 55.37C13.2661 55.2069 13.1456 55.0148 13.0658 54.8048C12.9861 54.5948 12.9488 54.3711 12.956 54.1466C12.9564 53.9769 12.9837 53.8083 13.0369 53.6472C13.2866 52.6046 13.6771 51.601 14.1978 50.6639C16.6342 46.5891 19.6848 42.9146 23.2421 39.7704C32.0269 31.5194 41.6811 24.246 52.0351 18.0778C56.2097 15.4132 60.6753 13.2348 65.3449 11.5848C66.3573 11.2209 67.4163 11.0027 68.4901 10.9369C68.8882 10.9025 69.2891 10.9481 69.6693 11.071C70.0495 11.1939 70.4013 11.3915 70.7039 11.6523C70.8578 12.0222 70.9209 12.4234 70.888 12.8227C70.8551 13.2219 70.7272 13.6074 70.515 13.9471C69.3684 15.5547 68.1099 17.0793 66.7488 18.5097C66.0309 19.2438 65.1904 19.8468 64.265 20.2916C64.8184 19.5356 65.3989 18.8067 65.8983 18.0103C66.3856 17.2921 66.8016 16.528 67.1402 15.729C67.4912 14.8245 67.0053 14.2441 66.1413 14.5681C64.1975 15.297 62.3077 16.1744 60.4043 17.0518C60.1748 17.1463 60.0534 17.6053 59.9859 17.9293C59.4189 20.4266 58.906 22.9508 58.2985 25.4481C58.2403 25.6506 58.1355 25.8366 57.9925 25.9913C57.8495 26.146 57.6723 26.2651 57.4751 26.339C49.8748 28.5015 42.9218 32.4971 37.2268 37.975C37.0649 38.0965 36.9029 38.218 36.7274 38.326L36.1604 37.5701C34.5946 35.4642 32.6642 35.4507 31.3683 37.732C30.4863 39.3104 29.8319 41.0055 29.4245 42.7671C28.7631 45.4669 28.3986 48.3691 27.8857 51.1634C27.7237 52.0678 27.6832 53.1747 26.6843 53.5527C25.6853 53.9306 24.9834 53.0667 24.376 52.4458C22.8911 50.8934 21.4737 49.2735 19.8134 47.4512C18.7065 49.0306 17.6805 50.6639 16.7221 52.3378C16.0877 53.6067 16.8031 54.4436 18.288 54.4976C18.8404 54.5448 19.3959 54.5448 19.9483 54.4976C20.4883 54.3761 21.0282 54.2411 21.5952 54.1466Z" fill="#ED7426"/>
<path d="M9.53952 26.5051C9.21555 25.4117 8.93207 24.5613 8.68909 23.6973C8.44612 22.8334 8.25713 21.9425 7.96016 20.8086C6.3403 22.8469 4.78793 24.6963 4.61245 27.2475C4.51796 28.5974 5.61136 29.1914 6.74526 29.5963C5.97072 30.1956 5.05832 30.5911 4.09148 30.7467C3.12464 30.9024 2.13421 30.8131 1.21074 30.4873C0.691076 30.1836 0.301756 29.6989 0.11742 29.126C-0.0669169 28.553 -0.0332983 27.9322 0.21183 27.3825C0.824618 25.7273 1.63116 24.1505 2.61462 22.6849C5.64498 18.6187 9.32021 15.0757 13.4947 12.1963C19.4255 7.8372 25.8617 4.2112 32.663 1.39728C32.7656 1.35421 32.8757 1.33203 32.987 1.33203C33.0982 1.33203 33.2084 1.35421 33.311 1.39728L27.6414 4.69099C28.5054 5.37943 29.3288 5.94638 30.0442 6.62133C30.7597 7.29627 31.3941 8.0387 32.0691 8.86213C24.0048 13.9985 16.4594 19.9074 9.53952 26.5051Z" fill="#00A7BD"/>
<path d="M21.0537 3.05551L7.74383 12.3697C7.21737 7.57762 15.8026 1.48965 21.0537 3.05551Z" fill="#00A7BD"/>
</svg>
