<svg width="264" height="62" viewBox="0 0 264 62" fill="none" xmlns="http://www.w3.org/2000/svg">
<path d="M61.2481 43.0646C62.2825 41.7347 63.2135 40.6411 64.041 39.459C64.6321 38.6019 65.4449 37.5527 64.7799 36.5035C64.1149 35.4543 62.9623 36.1932 62.0165 36.2966C61.5687 36.3331 61.1417 36.5013 60.7893 36.78C60.4369 37.0588 60.1749 37.4356 60.0364 37.863C57.4741 43.8 54.1348 49.3705 50.106 54.4284C48.9636 55.8023 47.7026 57.0731 46.3377 58.2262C45.1999 59.1868 44.2098 58.8617 43.8699 57.4135C43.3675 55.1969 43.0719 52.9803 42.6582 50.675C42.4365 49.3894 42.1557 48.1037 41.8454 46.5669L38.7126 48.813L38.5205 48.6505C39.1707 47.956 39.7766 47.2466 40.4416 46.5817C46.5542 40.179 54.253 35.5088 62.7554 33.0456C64.8263 32.558 66.9231 32.188 69.0358 31.9373C69.4529 31.8855 69.8748 31.8855 70.2919 31.9373C71.5036 32.0555 71.9322 32.7205 71.3854 33.814C70.9716 34.6163 70.4765 35.3739 69.9077 36.0749C67.4017 38.8405 64.4802 41.1987 61.2481 43.0646Z" fill="#F4C027"/>
<path d="M13.103 36.2537C11.0464 38.2637 9.35175 40.6132 8.09348 43.199C7.95247 43.452 7.88096 43.7379 7.88622 44.0274C7.89149 44.317 7.97335 44.6001 8.12347 44.8478C8.27359 45.0955 8.48663 45.299 8.74092 45.4377C8.99521 45.5764 9.28169 45.6452 9.57122 45.6373C11.0047 45.7087 12.4413 45.684 13.8714 45.5634C14.0557 45.5483 14.2386 45.5186 14.4182 45.4747L14.5364 45.7555C13.4676 46.3189 12.3498 46.7838 11.1967 47.1446C9.31315 47.5836 7.3945 47.8556 5.46311 47.9573C3.23173 48.0756 2.18253 46.7308 2.99529 44.6472C3.80484 42.5971 4.86717 40.6561 6.15765 38.8693C9.99644 33.8486 14.4665 29.3437 19.4573 25.4662C29.5358 17.1264 40.5857 10.036 52.3665 4.34928C56.3449 2.29297 60.6086 0.843519 65.016 0.0490623C67.1735 -0.27604 67.8828 1.05392 67.0996 2.87154C66.457 4.2503 65.4309 5.41485 64.1441 6.22601C63.8042 5.60536 63.5382 4.48228 63.0653 4.39361C61.9264 4.34514 60.7897 4.53124 59.7257 4.94038C62.0356 6.42137 63.8397 8.5708 64.8977 11.1025C47.5039 20.1679 31.7141 32.0239 18.1569 46.1988L13.103 36.2537ZM40.4116 15.1663C42.0827 16.2153 44.0862 16.6002 46.027 16.2451C44.9775 15.8933 43.9827 15.3958 43.0715 14.7673C41.9337 13.7329 41.313 14.4275 40.4264 15.1368L40.4116 15.1663Z" fill="#B63E92"/>
<path d="M23.6401 59.2755C21.4465 60.8984 18.7005 61.5889 16.0002 61.1966C15.7544 61.1908 15.5122 61.1365 15.2875 61.0366C15.0628 60.9368 14.8601 60.7934 14.6911 60.6148C14.5221 60.4362 14.3902 60.2259 14.3029 59.996C14.2156 59.7661 14.1747 59.5213 14.1826 59.2755C14.1831 59.0897 14.213 58.9052 14.2713 58.7287C14.5445 57.5874 14.9721 56.4887 15.5421 55.4629C18.2092 51.0021 21.5488 46.9796 25.443 43.5376C35.0599 34.5051 45.6285 26.5428 56.9631 19.7903C61.5332 16.8734 66.4217 14.4886 71.5336 12.6824C72.6419 12.284 73.8012 12.0452 74.9767 11.9731C75.4125 11.9355 75.8514 11.9854 76.2676 12.1199C76.6838 12.2544 77.0689 12.4708 77.4002 12.7563C77.5686 13.1612 77.6377 13.6005 77.6017 14.0375C77.5658 14.4745 77.4257 14.8966 77.1934 15.2684C75.9382 17.0282 74.5605 18.6973 73.0705 20.2632C72.2846 21.0668 71.3645 21.7269 70.3514 22.2138C70.9573 21.3863 71.5927 20.5883 72.1395 19.7164C72.6729 18.9302 73.1283 18.0938 73.499 17.2191C73.8832 16.229 73.3512 15.5935 72.4055 15.9482C70.2775 16.7462 68.2087 17.7067 66.1251 18.6672C65.8739 18.7707 65.7409 19.2731 65.667 19.6278C65.0463 22.3616 64.4848 25.125 63.8198 27.8588C63.7561 28.0804 63.6414 28.284 63.4849 28.4534C63.3283 28.6228 63.1343 28.7531 62.9184 28.8341C54.5983 31.2013 46.9867 35.5754 40.7523 41.5722C40.575 41.7052 40.3977 41.8382 40.2056 41.9564L39.5849 41.1289C37.8707 38.8236 35.7576 38.8088 34.3389 41.3062C33.3734 43.034 32.657 44.8897 32.211 46.8182C31.4869 49.7736 31.0879 52.9508 30.5264 56.0097C30.3491 56.9998 30.3047 58.2115 29.2112 58.6253C28.1177 59.0391 27.3492 58.0933 26.6843 57.4135C25.0587 55.7141 23.5071 53.9409 21.6895 51.9459C20.4778 53.6749 19.3547 55.4629 18.3055 57.2953C17.6109 58.6844 18.3941 59.6006 20.0197 59.6597C20.6244 59.7113 21.2325 59.7113 21.8373 59.6597C22.4284 59.5267 23.0195 59.3789 23.6401 59.2755Z" fill="#ED7426"/>
<path d="M10.4431 29.0144C10.0884 27.8174 9.77808 26.8864 9.51209 25.9407C9.2461 24.9949 9.03922 24.0196 8.71411 22.7783C6.94083 25.0097 5.24143 27.0342 5.04932 29.8271C4.94588 31.3049 6.14285 31.9551 7.38415 32.3984C6.53624 33.0544 5.53742 33.4874 4.47901 33.6578C3.42059 33.8281 2.33635 33.7305 1.32542 33.3737C0.756532 33.0413 0.330337 32.5107 0.128541 31.8835C-0.073255 31.2563 -0.0364522 30.5767 0.231894 29.9749C0.902722 28.163 1.78566 26.4368 2.86227 24.8324C6.17965 20.3811 10.203 16.5025 14.7728 13.3504C21.2654 8.57834 28.3112 4.6089 35.7567 1.52846C35.869 1.48131 35.9896 1.45703 36.1114 1.45703C36.2332 1.45703 36.3537 1.48131 36.466 1.52846L30.2595 5.13414C31.2053 5.88779 32.1067 6.50844 32.8899 7.24731C33.6731 7.98618 34.3677 8.79893 35.1065 9.70035C26.2785 15.3233 18.0184 21.7918 10.4431 29.0144Z" fill="#00A7BD"/>
<path d="M23.048 3.34489L8.47746 13.5413C7.90114 8.29532 17.2996 1.63072 23.048 3.34489Z" fill="#00A7BD"/>
<path d="M96.715 28.9368C95.7657 28.9367 94.8192 28.8326 93.8925 28.6265C93.0377 28.4551 92.215 28.151 91.4543 27.725C91.2682 27.6375 91.1024 27.5122 90.9675 27.357C90.8327 27.2017 90.7317 27.0201 90.6711 26.8236C90.5458 26.4749 90.5458 26.0936 90.6711 25.7449C90.7226 25.5874 90.8052 25.4419 90.9138 25.3168C91.0225 25.1918 91.1551 25.0897 91.3039 25.0167C91.4526 24.9438 91.6145 24.9013 91.7799 24.8918C91.9453 24.8824 92.1109 24.9061 92.267 24.9617C92.3659 24.9938 92.4603 25.0385 92.5478 25.0947C93.1544 25.4467 93.8127 25.7011 94.4984 25.8483C95.2014 26.008 95.9202 26.0874 96.6411 26.0848C97.4606 26.1693 98.2863 25.999 99.0055 25.5971C99.2163 25.4653 99.3905 25.2825 99.5119 25.0655C99.6333 24.8485 99.698 24.6044 99.7 24.3558C99.7018 24.1599 99.6588 23.9662 99.5743 23.7895C99.4898 23.6128 99.366 23.4577 99.2124 23.3362C98.7002 23.0113 98.1269 22.7951 97.5278 22.7007L95.0156 22.2131C92.2375 21.622 90.8484 20.1886 90.8484 17.8833C90.8203 16.9474 91.0893 16.0266 91.6168 15.2529C92.1835 14.4846 92.9503 13.8866 93.8334 13.524C94.8788 13.0972 95.9997 12.886 97.1288 12.9033C97.9454 12.9058 98.7589 13.005 99.5523 13.1989C100.293 13.3775 101.001 13.6717 101.651 14.0707C101.982 14.2625 102.225 14.575 102.33 14.9426C102.441 15.2685 102.441 15.6216 102.33 15.9475C102.266 16.1054 102.169 16.2484 102.047 16.3678C101.925 16.4872 101.78 16.5805 101.621 16.642C101.416 16.7005 101.202 16.7162 100.991 16.6883C100.78 16.6603 100.577 16.5892 100.395 16.4795C99.9266 16.2366 99.4302 16.0529 98.9168 15.9327C98.363 15.8153 97.7984 15.7558 97.2322 15.7554C96.4807 15.713 95.7339 15.8984 95.0895 16.2873C94.8532 16.4373 94.6587 16.6447 94.5243 16.8902C94.3899 17.1357 94.32 17.4113 94.3211 17.6912C94.3141 17.8885 94.3532 18.0847 94.4353 18.2643C94.5174 18.4438 94.6402 18.6018 94.7939 18.7256C95.2713 19.0678 95.8236 19.2907 96.4047 19.3758L98.8873 19.893C101.739 20.5137 103.173 21.9175 103.173 24.0898C103.157 25.0146 102.846 25.9102 102.286 26.6463C101.722 27.4103 100.954 27.9994 100.069 28.3457C99.0035 28.7699 97.8618 28.9711 96.715 28.9368Z" fill="#1E1E1E"/>
<path d="M106.881 28.8936C106.67 28.9092 106.457 28.8789 106.258 28.805C106.059 28.731 105.879 28.6151 105.729 28.4651C105.453 28.1404 105.31 27.7233 105.33 27.2977V14.5448C105.315 14.3288 105.346 14.1123 105.42 13.9088C105.494 13.7053 105.609 13.5194 105.758 13.3626C105.917 13.2175 106.104 13.106 106.307 13.0349C106.51 12.9638 106.725 12.9345 106.94 12.9488C107.309 12.9317 107.674 13.0242 107.989 13.2148C108.293 13.448 108.54 13.7458 108.714 14.0867L113.428 22.7019L118.215 14.0867C118.389 13.7458 118.636 13.448 118.939 13.2148C119.244 13.024 119.6 12.9312 119.959 12.9488C120.171 12.9354 120.383 12.9677 120.581 13.0436C120.779 13.1194 120.959 13.2371 121.107 13.3885C121.256 13.5399 121.37 13.7216 121.442 13.9211C121.515 14.1206 121.543 14.3334 121.526 14.5448V27.3125C121.534 27.7166 121.384 28.1079 121.108 28.4032C120.832 28.6985 120.452 28.8745 120.048 28.8936C119.845 28.9079 119.642 28.8802 119.45 28.8123C119.259 28.7444 119.084 28.6378 118.935 28.4992C118.787 28.3605 118.669 28.1927 118.588 28.0064C118.507 27.82 118.466 27.619 118.467 27.4159V27.342V19.2588L114.846 25.7608C114.7 26.0053 114.509 26.2208 114.285 26.3963C114.051 26.545 113.778 26.6173 113.501 26.6031C113.221 26.6175 112.942 26.5453 112.703 26.3963C112.476 26.228 112.289 26.0109 112.157 25.7608L108.418 19.2588V27.2829C108.448 27.4615 108.441 27.6442 108.4 27.8204C108.359 27.9966 108.283 28.163 108.178 28.3099C108.072 28.4569 107.938 28.5814 107.784 28.6765C107.63 28.7716 107.459 28.8354 107.28 28.8641C107.15 28.896 107.015 28.906 106.881 28.8936Z" fill="#1E1E1E"/>
<path d="M125.042 28.8928C124.788 28.9115 124.534 28.8642 124.303 28.7555C124.073 28.6467 123.874 28.4802 123.727 28.2722C123.598 28.0475 123.529 27.7927 123.529 27.5333C123.529 27.2739 123.598 27.0191 123.727 26.7944L129.387 14.3814C129.58 13.9736 129.869 13.6187 130.229 13.347C130.561 13.1234 130.952 13.0039 131.352 13.0039C131.753 13.0039 132.144 13.1234 132.475 13.347C132.843 13.6286 133.125 14.0073 133.288 14.4405L138.978 26.8092C139.107 27.0338 139.176 27.2887 139.176 27.5481C139.176 27.8075 139.107 28.0623 138.978 28.2869C138.843 28.4885 138.657 28.6507 138.439 28.7571C138.221 28.8636 137.978 28.9104 137.736 28.8928C137.322 28.9195 136.912 28.7933 136.584 28.5381C136.256 28.2325 136.008 27.8522 135.86 27.4298L134.929 25.3167H127.688L126.786 27.4298C126.629 27.8521 126.382 28.2353 126.062 28.5529C125.773 28.7829 125.412 28.9033 125.042 28.8928ZM131.308 16.7901L128.855 22.7011H133.85L131.352 16.7901H131.308Z" fill="#1E1E1E"/>
<path d="M142.923 28.8932C142.688 28.9053 142.453 28.8696 142.232 28.7883C142.011 28.7071 141.809 28.5819 141.638 28.4204C141.329 28.0601 141.175 27.5929 141.209 27.1199V14.8252C141.171 14.6243 141.176 14.4177 141.222 14.2185C141.268 14.0193 141.355 13.8318 141.477 13.6679C141.599 13.504 141.754 13.3673 141.932 13.2663C142.109 13.1654 142.306 13.1024 142.51 13.0814H148.302C149.751 12.9925 151.182 13.4396 152.322 14.3375C152.814 14.7768 153.203 15.3205 153.458 15.9289C153.714 16.5374 153.831 17.1953 153.8 17.8545C153.85 18.912 153.537 19.9548 152.913 20.81C152.268 21.6132 151.365 22.167 150.356 22.3764C151.197 22.666 151.887 23.2772 152.277 24.0758L153.652 26.6175C153.769 26.8505 153.833 27.1069 153.838 27.3678C153.843 27.6287 153.789 27.8874 153.681 28.1248C153.504 28.5977 153.031 28.8489 152.292 28.8489C151.876 28.866 151.464 28.7579 151.11 28.5386C150.765 28.2998 150.489 27.9733 150.312 27.5928L148.258 23.6916C148.088 23.3282 147.802 23.0318 147.445 22.8493C147.084 22.701 146.698 22.6257 146.307 22.6276H144.623V27.0608C144.653 27.5334 144.5 27.9994 144.194 28.3612C144.032 28.5352 143.835 28.6727 143.616 28.7644C143.397 28.8562 143.161 28.9001 142.923 28.8932ZM144.623 20.2041H147.682C149.529 20.2041 150.445 19.4653 150.445 18.0023C150.445 16.5393 149.529 15.8152 147.682 15.8152H144.623V20.2041Z" fill="#1E1E1E"/>
<path d="M161.654 28.7527C161.421 28.7662 161.188 28.7312 160.969 28.6498C160.75 28.5684 160.551 28.4424 160.383 28.2798C160.071 27.921 159.912 27.4542 159.94 26.9794V15.8225H156.038C155.737 15.7289 155.474 15.5415 155.287 15.2876C155.1 15.0337 154.999 14.7266 154.999 14.4112C154.999 14.0959 155.1 13.7888 155.287 13.5349C155.474 13.281 155.737 13.0935 156.038 13H167.269C167.57 13.0935 167.834 13.281 168.021 13.5349C168.208 13.7888 168.309 14.0959 168.309 14.4112C168.309 14.7266 168.208 15.0337 168.021 15.2876C167.834 15.5415 167.57 15.7289 167.269 15.8225H163.353V26.9794C163.387 27.4524 163.233 27.9196 162.925 28.2798C162.759 28.4447 162.56 28.5722 162.34 28.6537C162.121 28.7353 161.887 28.769 161.654 28.7527Z" fill="#1E1E1E"/>
<path d="M177.978 28.6859C177.565 28.7413 177.147 28.6332 176.813 28.3847C176.479 28.1362 176.255 27.7671 176.19 27.356C176.175 27.2036 176.175 27.0502 176.19 26.8979V14.943C176.16 14.7372 176.172 14.5278 176.224 14.3266C176.275 14.1253 176.366 13.9363 176.491 13.7702C176.616 13.6042 176.773 13.4643 176.952 13.3588C177.131 13.2532 177.329 13.1839 177.534 13.1549C177.681 13.1254 177.831 13.1254 177.978 13.1549H182.278C184.509 13.0088 186.711 13.7287 188.425 15.1646C189.832 16.7492 190.608 18.7943 190.608 20.913C190.608 23.0317 189.832 25.0769 188.425 26.6614C186.716 28.1068 184.512 28.8326 182.278 28.6859H177.978ZM179.618 25.893H182.086C185.396 25.893 187.036 24.2232 187.036 20.8983C187.036 17.5733 185.396 15.9478 182.086 15.9478H179.618V25.893Z" fill="#1E1E1E"/>
<path d="M195.059 28.6859C194.854 28.7173 194.645 28.7077 194.444 28.6576C194.242 28.6076 194.053 28.5181 193.887 28.3944C193.721 28.2707 193.58 28.1152 193.475 27.937C193.369 27.7587 193.299 27.5612 193.271 27.356C193.256 27.2036 193.256 27.0502 193.271 26.8979V14.943C193.241 14.7372 193.253 14.5278 193.305 14.3266C193.357 14.1253 193.447 13.9363 193.572 13.7702C193.697 13.6042 193.854 13.4643 194.033 13.3588C194.212 13.2532 194.41 13.1839 194.615 13.1549C194.762 13.1254 194.912 13.1254 195.059 13.1549H202.758C203.11 13.1549 203.449 13.295 203.698 13.5444C203.948 13.7939 204.088 14.1321 204.088 14.4849C204.088 14.8376 203.948 15.1759 203.698 15.4253C203.449 15.6747 203.11 15.8148 202.758 15.8148H196.536V19.4501H202.24C202.597 19.4501 202.939 19.5917 203.191 19.8439C203.444 20.0961 203.585 20.4382 203.585 20.7948C203.585 21.1515 203.444 21.4935 203.191 21.7457C202.939 21.9979 202.597 22.1396 202.24 22.1396H196.536V26.026H202.758C203.11 26.026 203.449 26.1661 203.698 26.4155C203.948 26.665 204.088 27.0032 204.088 27.356C204.088 27.7087 203.948 28.047 203.698 28.2964C203.449 28.5458 203.11 28.6859 202.758 28.6859H195.059Z" fill="#1E1E1E"/>
<path d="M208.18 28.8932C207.131 28.8932 206.599 28.3316 206.599 27.2381V14.6625C206.565 14.2035 206.707 13.7488 206.998 13.3917C207.14 13.2466 207.31 13.1324 207.498 13.0561C207.686 12.9799 207.888 12.9432 208.091 12.9484C208.409 12.9279 208.726 13.0108 208.993 13.1848C209.279 13.3978 209.533 13.6517 209.746 13.9384L216.884 23.0413V14.5739C216.907 14.1763 217.078 13.8017 217.363 13.5237C217.648 13.2457 218.027 13.0843 218.425 13.0714C218.823 13.0584 219.212 13.1948 219.514 13.4536C219.817 13.7125 220.012 14.0752 220.061 14.4704V27.2972C220.089 27.7189 219.957 28.1356 219.691 28.4646C219.563 28.6058 219.405 28.7173 219.229 28.7913C219.053 28.8653 218.863 28.9001 218.672 28.8932C218.329 28.9063 217.99 28.819 217.697 28.6419C217.397 28.4284 217.133 28.1691 216.913 27.8735L209.835 18.7707V27.2381C209.864 27.4623 209.841 27.6902 209.768 27.9042C209.695 28.1182 209.574 28.3127 209.414 28.4725C209.254 28.6324 209.06 28.7535 208.846 28.8264C208.632 28.8993 208.404 28.9222 208.18 28.8932Z" fill="#1E1E1E"/>
<path d="M228.617 28.8934C228.384 28.9069 228.151 28.8719 227.932 28.7905C227.714 28.7091 227.514 28.5831 227.347 28.4205C227.189 28.2446 227.069 28.0388 226.993 27.8154C226.916 27.592 226.886 27.3555 226.903 27.1201V15.9632H223.002C222.781 16.0319 222.547 16.0476 222.318 16.0092C222.09 15.9707 221.874 15.8791 221.687 15.7418C221.501 15.6045 221.349 15.4252 221.245 15.2185C221.14 15.0119 221.086 14.7835 221.086 14.552C221.086 14.3204 221.14 14.092 221.245 13.8854C221.349 13.6787 221.501 13.4995 221.687 13.3621C221.874 13.2248 222.09 13.1332 222.318 13.0947C222.547 13.0563 222.781 13.072 223.002 13.1407H234.233C234.534 13.2343 234.797 13.4217 234.984 13.6756C235.171 13.9295 235.272 14.2366 235.272 14.552C235.272 14.8673 235.171 15.1744 234.984 15.4283C234.797 15.6822 234.534 15.8697 234.233 15.9632H230.317V27.1201C230.351 27.5931 230.197 28.0603 229.888 28.4205C229.721 28.5831 229.521 28.7091 229.302 28.7905C229.084 28.8719 228.85 28.9069 228.617 28.8934Z" fill="#1E1E1E"/>
<path d="M235.829 28.8928C235.574 28.9115 235.32 28.8642 235.089 28.7555C234.859 28.6467 234.661 28.4802 234.513 28.2722C234.384 28.0475 234.315 27.7927 234.315 27.5333C234.315 27.2739 234.384 27.0191 234.513 26.7944L240.158 14.4257C240.344 13.9971 240.64 13.6251 241.015 13.347C241.347 13.1234 241.738 13.0039 242.139 13.0039C242.539 13.0039 242.93 13.1234 243.262 13.347C243.629 13.6286 243.911 14.0073 244.074 14.4405L249.734 26.7501C249.864 26.9747 249.932 27.2296 249.932 27.4889C249.932 27.7483 249.864 28.0032 249.734 28.2278C249.599 28.4294 249.413 28.5916 249.195 28.698C248.977 28.8044 248.735 28.8513 248.493 28.8337C248.078 28.8604 247.668 28.7342 247.34 28.479C247.013 28.1733 246.765 27.7931 246.616 27.3707L245.685 25.2576H238.444L237.528 27.3707C237.376 27.7921 237.134 28.1753 236.819 28.4938C236.546 28.7386 236.195 28.8798 235.829 28.8928ZM242.094 16.7901L239.641 22.7011H244.621L242.139 16.7901H242.094Z" fill="#1E1E1E"/>
<path d="M253.724 28.6852C253.488 28.7024 253.252 28.672 253.028 28.5958C252.805 28.5197 252.599 28.3993 252.423 28.2419C252.111 27.8831 251.952 27.4163 251.98 26.9415V14.824C251.966 14.5911 251.997 14.3577 252.073 14.137C252.149 13.9164 252.268 13.713 252.423 13.5384C252.595 13.3788 252.798 13.2559 253.019 13.1771C253.24 13.0984 253.475 13.0654 253.709 13.0803C253.908 13.0492 254.111 13.0589 254.306 13.109C254.5 13.1591 254.683 13.2485 254.842 13.3716C255.001 13.4947 255.133 13.6491 255.231 13.8251C255.328 14.0012 255.389 14.1953 255.408 14.3955C255.423 14.538 255.423 14.6816 255.408 14.824V25.7741H261.319C261.711 25.7741 262.087 25.9298 262.364 26.2069C262.641 26.484 262.797 26.8599 262.797 27.2518C262.797 27.6437 262.641 28.0196 262.364 28.2967C262.087 28.5739 261.711 28.7296 261.319 28.7296H253.724V28.6852Z" fill="#1E1E1E"/>
<path d="M95.8264 48.4442C94.922 48.4674 94.0267 48.2588 93.2256 47.8384C92.5315 47.4249 91.972 46.8193 91.6148 46.0946C91.2348 45.2646 91.0381 44.3624 91.0381 43.4495C91.0381 42.5366 91.2348 41.6344 91.6148 40.8043C91.9804 40.0749 92.5571 39.4725 93.2699 39.0754C94.058 38.6629 94.937 38.4545 95.8264 38.4695C96.3248 38.4754 96.8208 38.5398 97.3041 38.6616C97.7592 38.781 98.1929 38.9704 98.5897 39.2231C98.7968 39.3444 98.95 39.5399 99.0183 39.7699C99.063 39.9759 99.0315 40.1912 98.9296 40.3758C98.8237 40.5445 98.6614 40.6701 98.4715 40.7304C98.3555 40.7533 98.2359 40.7507 98.1211 40.7226C98.0062 40.6945 97.8989 40.6417 97.8065 40.5679C97.516 40.3928 97.2027 40.2585 96.8756 40.1689C96.5474 40.085 96.2094 40.0453 95.8707 40.0507C95.4538 40.021 95.0356 40.0852 94.6468 40.2387C94.2581 40.3922 93.9087 40.6309 93.6245 40.9373C93.1097 41.6794 92.8339 42.5611 92.8339 43.4643C92.8339 44.3674 93.1097 45.2491 93.6245 45.9912C93.906 46.302 94.2545 46.5447 94.6437 46.7009C95.0329 46.8571 95.4524 46.9226 95.8707 46.8926C96.2198 46.8931 96.5675 46.8484 96.9051 46.7596C97.2426 46.673 97.5661 46.5386 97.8657 46.3606C97.9578 46.2859 98.0646 46.2315 98.1792 46.2009C98.2938 46.1704 98.4136 46.1644 98.5306 46.1833C98.621 46.2088 98.7054 46.2519 98.779 46.3103C98.8525 46.3686 98.9138 46.441 98.9592 46.5232C99.0609 46.6916 99.0927 46.8931 99.0478 47.0847C99.026 47.194 98.982 47.2976 98.9184 47.3891C98.8548 47.4806 98.7732 47.5581 98.6784 47.6167C98.2784 47.8968 97.8337 48.1066 97.3632 48.2374C96.8605 48.3648 96.3449 48.4343 95.8264 48.4442Z" fill="#1E1E1E"/>
<path d="M104.724 48.4418C103.86 48.4613 103.007 48.2468 102.256 47.8211C101.557 47.4092 100.992 46.8036 100.63 46.0774C100.243 45.2492 100.043 44.3463 100.043 43.4323C100.043 42.5182 100.243 41.6153 100.63 40.7871C100.988 40.0665 101.547 39.4657 102.241 39.0582C103.002 38.6582 103.849 38.4492 104.709 38.4492C105.569 38.4492 106.415 38.6582 107.177 39.0582C107.871 39.4687 108.435 40.0683 108.802 40.7871C109.193 41.6071 109.381 42.5095 109.349 43.4175C109.374 44.3376 109.176 45.2501 108.773 46.0774C108.411 46.8036 107.846 47.4092 107.147 47.8211C106.409 48.2412 105.572 48.4555 104.724 48.4418ZM104.724 46.9641C105.116 46.9862 105.509 46.9146 105.868 46.7554C106.228 46.5961 106.545 46.3536 106.792 46.0479C107.277 45.2805 107.534 44.3915 107.534 43.484C107.534 42.5765 107.277 41.6875 106.792 40.9201C106.28 40.3673 105.569 40.0399 104.816 40.0095C104.063 39.979 103.328 40.248 102.773 40.7576L102.625 40.9201C102.141 41.6875 101.884 42.5765 101.884 43.484C101.884 44.3915 102.141 45.2805 102.625 46.0479C102.875 46.3547 103.194 46.5978 103.557 46.7571C103.919 46.9164 104.314 46.9874 104.709 46.9641H104.724Z" fill="#1E1E1E"/>
<path d="M112.006 48.4142C111.819 48.4352 111.63 48.3821 111.481 48.2661C111.332 48.1502 111.234 47.9806 111.208 47.7935C111.194 47.7253 111.194 47.6548 111.208 47.5866V39.2965C111.194 39.2021 111.198 39.1058 111.222 39.0133C111.246 38.9207 111.288 38.8339 111.346 38.758C111.404 38.6821 111.476 38.6187 111.559 38.5716C111.642 38.5244 111.734 38.4946 111.829 38.4838C111.897 38.469 111.968 38.469 112.036 38.4838C112.226 38.4714 112.415 38.5124 112.583 38.602C112.737 38.7233 112.858 38.8806 112.937 39.0601L116.129 44.971L119.306 39.0601C119.39 38.8837 119.511 38.7274 119.661 38.602C119.828 38.5108 120.018 38.4698 120.208 38.4838C120.301 38.4714 120.396 38.4776 120.487 38.5022C120.577 38.5268 120.662 38.5692 120.737 38.627C120.811 38.6847 120.873 38.7567 120.919 38.8387C120.965 38.9206 120.995 39.011 121.006 39.1044C121.02 39.1676 121.02 39.2333 121.006 39.2965V47.5866C121.006 47.7983 120.922 48.0012 120.772 48.1509C120.622 48.3005 120.419 48.3846 120.208 48.3846C119.996 48.3846 119.793 48.3005 119.644 48.1509C119.494 48.0012 119.41 47.7983 119.41 47.5866V41.6757L116.809 46.4044C116.737 46.5381 116.642 46.6582 116.528 46.7591C116.405 46.8361 116.26 46.8723 116.114 46.8625C115.962 46.8788 115.809 46.8366 115.686 46.7443C115.565 46.6528 115.464 46.537 115.39 46.4044L112.804 41.7052V47.5127C112.83 47.7001 112.784 47.8904 112.674 48.0444C112.564 48.1983 112.399 48.3042 112.213 48.3403L112.006 48.4142Z" fill="#1E1E1E"/>
<path d="M124.021 48.4128C123.812 48.4379 123.601 48.3789 123.434 48.2487C123.268 48.1185 123.16 47.9278 123.135 47.7183C123.127 47.6446 123.127 47.5704 123.135 47.4967V39.4725C123.12 39.3695 123.126 39.2647 123.153 39.1641C123.179 39.0635 123.225 38.9692 123.289 38.8867C123.352 38.8042 123.431 38.735 123.521 38.6834C123.611 38.6318 123.711 38.5986 123.814 38.5859H127.361C128.255 38.5263 129.139 38.8119 129.829 39.3839C130.377 39.992 130.681 40.7817 130.681 41.6005C130.681 42.4193 130.377 43.209 129.829 43.8171C129.14 44.3931 128.257 44.6838 127.361 44.6298H124.908V47.4671C124.938 47.6763 124.885 47.889 124.761 48.06C124.637 48.2311 124.451 48.347 124.243 48.3833L124.021 48.4128ZM124.908 43.2703H127.08C128.351 43.2703 128.986 42.7236 128.986 41.6153C128.986 40.5069 128.351 39.9454 127.08 39.9454H124.908V43.2703Z" fill="#1E1E1E"/>
<path d="M132.992 48.293C132.888 48.3097 132.781 48.3051 132.679 48.2797C132.577 48.2543 132.481 48.2084 132.397 48.145C132.312 48.0815 132.242 48.0017 132.189 47.9103C132.137 47.8189 132.103 47.7179 132.091 47.6132C132.083 47.5395 132.083 47.4653 132.091 47.3916V39.4413C132.091 39.2062 132.184 38.9807 132.35 38.8144C132.516 38.6481 132.742 38.5547 132.977 38.5547C133.212 38.5547 133.438 38.6481 133.604 38.8144C133.77 38.9807 133.864 39.2062 133.864 39.4413V46.83H137.854C138.371 46.83 138.622 47.0665 138.622 47.5689C138.635 47.6563 138.629 47.7454 138.607 47.8308C138.585 47.9163 138.546 47.9964 138.492 48.0666C138.438 48.1367 138.371 48.1955 138.295 48.2394C138.218 48.2834 138.133 48.3116 138.046 48.3225H132.992V48.293Z" fill="#1E1E1E"/>
<path d="M140.749 48.4141C140.54 48.4391 140.329 48.3801 140.162 48.2499C139.996 48.1197 139.888 47.929 139.863 47.7195C139.848 47.6464 139.848 47.571 139.863 47.4979V39.3851C139.859 39.2686 139.878 39.1525 139.919 39.0435C139.96 38.9344 140.022 38.8344 140.101 38.7493C140.181 38.6642 140.276 38.5957 140.383 38.5476C140.489 38.4994 140.603 38.4727 140.72 38.4689C140.954 38.4648 141.18 38.5519 141.351 38.7119C141.522 38.8719 141.624 39.0921 141.636 39.326V47.4979C141.666 47.7071 141.613 47.9197 141.489 48.0908C141.365 48.2618 141.179 48.3778 140.971 48.4141C140.897 48.4215 140.823 48.4215 140.749 48.4141Z" fill="#1E1E1E"/>
<path d="M143.852 48.4118C143.717 48.4264 143.582 48.4038 143.459 48.3465C143.337 48.2891 143.232 48.1993 143.157 48.0867C143.089 47.9623 143.053 47.8225 143.053 47.6804C143.053 47.5383 143.089 47.3985 143.157 47.274L146.792 39.2203C146.879 38.9878 147.033 38.7869 147.236 38.644C147.389 38.5289 147.576 38.4667 147.768 38.4667C147.973 38.4536 148.176 38.511 148.344 38.6292C148.539 38.7767 148.687 38.9766 148.773 39.2055L152.482 47.3331C152.55 47.4576 152.586 47.5974 152.586 47.7395C152.586 47.8816 152.55 48.0214 152.482 48.1459C152.415 48.256 152.319 48.3451 152.204 48.4026C152.089 48.4602 151.96 48.4839 151.832 48.471C151.615 48.4882 151.399 48.4251 151.226 48.2936C151.06 48.1297 150.929 47.9336 150.841 47.7173L150.162 46.1214H145.448L144.812 47.6582C144.726 47.8718 144.601 48.0673 144.443 48.2345C144.363 48.3049 144.269 48.3572 144.167 48.3879C144.065 48.4185 143.957 48.4266 143.852 48.4118ZM147.768 40.5059L146.024 44.6436H149.556L147.768 40.5059Z" fill="#1E1E1E"/>
<path d="M154.833 48.4127C154.736 48.425 154.637 48.418 154.543 48.3919C154.448 48.3658 154.36 48.3212 154.283 48.2607C154.206 48.2002 154.142 48.125 154.094 48.0395C154.046 47.9539 154.016 47.8598 154.005 47.7625C153.99 47.6943 153.99 47.6238 154.005 47.5556V39.3541C153.989 39.119 154.063 38.8867 154.212 38.7039C154.285 38.6295 154.372 38.5713 154.469 38.5331C154.566 38.4949 154.67 38.4776 154.774 38.4823C154.938 38.4689 155.103 38.5049 155.247 38.5857C155.393 38.6999 155.522 38.8342 155.631 38.9847L160.552 45.3685V39.3246C160.536 39.2077 160.545 39.0887 160.579 38.9757C160.613 38.8627 160.671 38.7583 160.749 38.6695C160.826 38.5807 160.922 38.5095 161.03 38.4607C161.137 38.412 161.254 38.3867 161.372 38.3867C161.49 38.3867 161.606 38.412 161.714 38.4607C161.821 38.5095 161.917 38.5807 161.995 38.6695C162.072 38.7583 162.13 38.8627 162.164 38.9757C162.198 39.0887 162.208 39.2077 162.192 39.3246V47.6443C162.204 47.8628 162.135 48.0782 162 48.2501C161.934 48.3255 161.852 48.3847 161.76 48.4231C161.667 48.4616 161.568 48.4782 161.468 48.4718C161.292 48.4859 161.116 48.4446 160.965 48.3536C160.815 48.2397 160.68 48.1054 160.566 47.9546L155.646 41.556V47.6295C155.646 48.1319 155.38 48.4127 154.833 48.4127Z" fill="#1E1E1E"/>
<path d="M168.84 48.4439C167.935 48.4683 167.039 48.2597 166.239 47.838C165.521 47.4364 164.939 46.8292 164.569 46.0943C164.189 45.2643 163.992 44.3621 163.992 43.4492C163.992 42.5362 164.189 41.6341 164.569 40.804C164.94 40.0736 165.522 39.4713 166.239 39.075C167.038 38.6483 167.934 38.4345 168.84 38.4544C169.338 38.4591 169.834 38.5236 170.317 38.6465C170.772 38.7659 171.206 38.9553 171.603 39.208C171.708 39.2656 171.799 39.3438 171.873 39.4377C171.947 39.5317 172.001 39.6395 172.031 39.7548C172.076 39.9608 172.045 40.1761 171.943 40.3607C171.894 40.4471 171.828 40.5229 171.749 40.5838C171.671 40.6447 171.581 40.6894 171.485 40.7153C171.369 40.7373 171.249 40.7341 171.135 40.706C171.02 40.678 170.913 40.6258 170.82 40.5528C170.534 40.369 170.219 40.2341 169.889 40.1538C169.561 40.0699 169.223 40.0302 168.884 40.0356C168.467 40.0059 168.049 40.0701 167.66 40.2236C167.271 40.377 166.922 40.6158 166.638 40.9222C166.138 41.6703 165.872 42.5497 165.872 43.4492C165.872 44.3486 166.138 45.228 166.638 45.9761C166.919 46.2869 167.268 46.5296 167.657 46.6858C168.046 46.842 168.466 46.9075 168.884 46.8775C169.233 46.878 169.581 46.8332 169.918 46.7445C170.256 46.6579 170.579 46.5235 170.879 46.3455C170.972 46.2726 171.079 46.2203 171.194 46.1923C171.308 46.1642 171.428 46.1611 171.544 46.183C171.728 46.2379 171.886 46.3589 171.987 46.5228C172.075 46.6962 172.106 46.8925 172.076 47.0844C172.021 47.3043 171.883 47.4947 171.692 47.6164C171.292 47.8964 170.847 48.1063 170.376 48.237C169.875 48.372 169.359 48.4416 168.84 48.4439Z" fill="#1E1E1E"/>
<path d="M174.618 48.2961C174.511 48.3128 174.402 48.308 174.297 48.282C174.192 48.2559 174.093 48.2092 174.006 48.1445C173.92 48.0798 173.847 47.9985 173.792 47.9052C173.737 47.812 173.701 47.7088 173.687 47.6015C173.672 47.5234 173.672 47.4432 173.687 47.3651V39.5183C173.67 39.4114 173.675 39.3023 173.701 39.1973C173.727 39.0923 173.774 38.9935 173.838 38.9068C173.903 38.8201 173.984 38.7472 174.078 38.6923C174.171 38.6375 174.274 38.6018 174.381 38.5873H179.539C179.735 38.5638 179.932 38.6191 180.087 38.7411C180.242 38.863 180.343 39.0416 180.366 39.2375C180.39 39.4335 180.334 39.6308 180.213 39.786C180.091 39.9412 179.912 40.0416 179.716 40.0651H175.371V42.7398H179.228C179.329 42.7251 179.432 42.7323 179.529 42.7609C179.627 42.7894 179.718 42.8387 179.795 42.9053C179.872 42.9718 179.933 43.0542 179.976 43.1468C180.018 43.2393 180.04 43.3399 180.04 43.4417C180.04 43.5435 180.018 43.6441 179.976 43.7366C179.933 43.8292 179.872 43.9116 179.795 43.9782C179.718 44.0447 179.627 44.094 179.529 44.1225C179.432 44.1511 179.329 44.1583 179.228 44.1436H175.357V46.8922H179.524C179.711 46.896 179.889 46.9719 180.021 47.1042C180.154 47.2364 180.229 47.4146 180.233 47.6015C180.233 47.694 180.215 47.7855 180.179 47.8708C180.143 47.956 180.091 48.0333 180.025 48.098C179.959 48.1626 179.88 48.2135 179.794 48.2475C179.708 48.2815 179.616 48.298 179.524 48.2961H174.603H174.618Z" fill="#1E1E1E"/>
<path d="M188.732 48.4439C187.851 48.492 186.98 48.2364 186.264 47.7198C185.979 47.495 185.749 47.2074 185.593 46.8794C185.436 46.5513 185.358 46.1917 185.363 45.8283C185.351 45.2373 185.538 44.6595 185.895 44.188C186.298 43.6785 186.801 43.2562 187.373 42.9467H187.461C187.147 42.6325 186.887 42.2679 186.693 41.868C186.541 41.5334 186.461 41.1712 186.456 40.804C186.448 40.4883 186.51 40.1746 186.638 39.8858C186.765 39.597 186.956 39.3402 187.195 39.1342C187.745 38.6856 188.437 38.4496 189.146 38.4692C189.793 38.4318 190.431 38.6373 190.934 39.0455C191.155 39.2371 191.329 39.4763 191.444 39.745C191.56 40.0137 191.612 40.3051 191.599 40.5971C191.6 41.0837 191.451 41.5588 191.17 41.9566C190.802 42.4582 190.328 42.872 189.781 43.1684L191.643 45.1486C191.94 44.4872 192.134 43.7847 192.22 43.0649C192.219 42.9731 192.238 42.8823 192.274 42.7978C192.31 42.7133 192.363 42.637 192.429 42.5735C192.495 42.51 192.574 42.4606 192.66 42.4282C192.746 42.3958 192.837 42.3812 192.929 42.3852C193.431 42.3852 193.653 42.6364 193.609 43.1536C193.55 43.7116 193.431 44.2616 193.254 44.7939C193.093 45.2665 192.885 45.7219 192.633 46.1534L193.756 47.2913C193.835 47.3567 193.899 47.4377 193.945 47.5293C193.991 47.6209 194.017 47.721 194.022 47.8233C194.022 47.9057 194.004 47.987 193.968 48.0612C193.932 48.1354 193.88 48.2006 193.816 48.2518C193.662 48.3781 193.467 48.4415 193.269 48.4291C193.099 48.4344 192.93 48.3935 192.781 48.3109C192.625 48.2091 192.482 48.0902 192.353 47.9563L191.688 47.2765C191.293 47.6393 190.838 47.9295 190.343 48.1336C189.833 48.3483 189.285 48.454 188.732 48.4439ZM188.836 47.0696C189.184 47.0772 189.531 47.0129 189.854 46.8807C190.177 46.7485 190.469 46.5512 190.712 46.3012L188.377 43.8777C187.99 44.0758 187.647 44.3526 187.373 44.6905C187.18 44.9846 187.077 45.3287 187.077 45.6805C187.067 45.8746 187.104 46.0683 187.183 46.2456C187.263 46.4229 187.383 46.5787 187.535 46.7002C187.908 46.9676 188.362 47.0981 188.821 47.0696H188.836ZM189.102 39.6809C188.81 39.6743 188.526 39.7741 188.304 39.9617C188.203 40.0616 188.124 40.1818 188.073 40.3142C188.023 40.4467 188 40.5884 188.008 40.7301C188 40.9625 188.057 41.1925 188.171 41.3951C188.344 41.6865 188.547 41.9589 188.776 42.2079C189.163 42.013 189.513 41.7531 189.811 41.4394C190.004 41.2246 190.109 40.9451 190.106 40.6562C190.113 40.5226 190.091 40.3892 190.042 40.2645C189.994 40.1399 189.92 40.0266 189.826 39.9321C189.622 39.7667 189.364 39.6825 189.102 39.6957V39.6809Z" fill="#1E1E1E"/>
<path d="M202.606 48.4115C202.502 48.426 202.396 48.4193 202.295 48.392C202.193 48.3646 202.098 48.3171 202.016 48.2523C201.933 48.1875 201.864 48.1067 201.813 48.0148C201.762 47.9228 201.731 47.8215 201.72 47.717C201.705 47.6438 201.705 47.5685 201.72 47.4953V40.1066H199.03C198.856 40.1281 198.681 40.0817 198.541 39.9771C198.4 39.8725 198.306 39.7177 198.277 39.5451C198.262 39.4819 198.262 39.4162 198.277 39.353C198.277 38.8653 198.528 38.6289 199.03 38.6289H206.168C206.67 38.6289 206.921 38.8653 206.921 39.353C206.947 39.5274 206.902 39.7047 206.796 39.846C206.691 39.9873 206.534 40.0811 206.36 40.1066H203.404V47.4953C203.439 47.7029 203.39 47.9157 203.268 48.0872C203.146 48.2588 202.961 48.3754 202.754 48.4115H202.606Z" fill="#1E1E1E"/>
<path d="M208.813 48.4131C208.604 48.4382 208.393 48.3791 208.227 48.249C208.06 48.1188 207.953 47.9281 207.927 47.7186V39.4728C207.901 39.2654 207.958 39.0564 208.086 38.8907C208.213 38.7249 208.4 38.6156 208.607 38.5861H212.153C213.04 38.5271 213.918 38.7953 214.621 39.3398C214.912 39.6127 215.141 39.9456 215.292 40.3155C215.442 40.6854 215.511 41.0836 215.493 41.4825C215.531 42.1335 215.327 42.7757 214.921 43.2857C214.515 43.7958 213.934 44.1377 213.291 44.2459C213.547 44.3359 213.782 44.4765 213.983 44.6593C214.183 44.8421 214.345 45.0633 214.458 45.3099L215.493 47.2161C215.565 47.3375 215.61 47.4728 215.625 47.6129C215.64 47.7531 215.625 47.8949 215.581 48.0289C215.478 48.2801 215.242 48.3983 214.872 48.3983C214.655 48.4093 214.44 48.358 214.251 48.2506C214.083 48.1164 213.943 47.9508 213.838 47.7629L212.449 45.1916C212.331 44.9262 212.128 44.7078 211.872 44.571C211.598 44.4521 211.3 44.3965 211 44.4084H209.7V47.4969C209.734 47.7045 209.685 47.9172 209.564 48.0888C209.442 48.2604 209.257 48.377 209.05 48.4131H208.813ZM209.7 43.108H211.843C213.128 43.108 213.779 42.576 213.779 41.5416C213.779 40.5072 213.128 39.9457 211.843 39.9457H209.7V43.108Z" fill="#1E1E1E"/>
<path d="M217.311 48.4127C217.176 48.4272 217.04 48.4046 216.918 48.3473C216.796 48.29 216.691 48.2001 216.616 48.0876C216.548 47.9631 216.512 47.8233 216.512 47.6812C216.512 47.5391 216.548 47.3993 216.616 47.2748L220.251 39.2212C220.337 38.9923 220.485 38.7923 220.68 38.6448C220.854 38.5265 221.062 38.4693 221.271 38.4823C221.476 38.4692 221.679 38.5266 221.847 38.6448C222.042 38.7923 222.191 38.9923 222.276 39.2212L225.941 47.3339C226.009 47.4584 226.045 47.5982 226.045 47.7403C226.045 47.8824 226.009 48.0222 225.941 48.1467C225.871 48.2569 225.771 48.3455 225.654 48.4029C225.537 48.4602 225.406 48.4841 225.276 48.4718C225.064 48.4881 224.853 48.4249 224.685 48.2945C224.517 48.1319 224.386 47.9354 224.3 47.7182L223.606 46.1222H218.877L218.197 47.7182C218.112 47.9318 217.986 48.1273 217.828 48.2945C217.675 48.394 217.492 48.4359 217.311 48.4127ZM221.256 40.5068L219.513 44.6445H223.03L221.286 40.5068H221.256Z" fill="#1E1E1E"/>
<path d="M228.35 48.4127C228.247 48.4272 228.142 48.421 228.041 48.3946C227.941 48.3682 227.847 48.322 227.764 48.2587C227.682 48.1954 227.612 48.1163 227.561 48.0261C227.509 47.9358 227.476 47.8361 227.463 47.7329C227.448 47.6548 227.448 47.5746 227.463 47.4965V39.3837C227.447 39.2587 227.458 39.1316 227.494 39.011C227.531 38.8904 227.593 38.779 227.676 38.6843C227.76 38.5896 227.862 38.5137 227.977 38.4617C228.092 38.4097 228.216 38.3828 228.342 38.3828C228.469 38.3828 228.593 38.4097 228.708 38.4617C228.823 38.5137 228.925 38.5896 229.009 38.6843C229.092 38.779 229.154 38.8904 229.191 39.011C229.227 39.1316 229.238 39.2587 229.222 39.3837V47.5556C229.256 47.7632 229.207 47.9759 229.085 48.1475C228.963 48.3191 228.779 48.4356 228.572 48.4718C228.496 48.4598 228.422 48.44 228.35 48.4127Z" fill="#1E1E1E"/>
<path d="M232.179 48.4125C231.981 48.4377 231.781 48.3833 231.623 48.2615C231.465 48.1396 231.362 47.9601 231.337 47.7623C231.329 47.6936 231.329 47.6242 231.337 47.5554V39.354C231.321 39.1189 231.395 38.8865 231.543 38.7038C231.616 38.6294 231.704 38.5712 231.801 38.533C231.897 38.4948 232.001 38.4775 232.105 38.4821C232.269 38.4721 232.433 38.5079 232.578 38.5856C232.721 38.7036 232.849 38.8375 232.962 38.9846L237.912 45.3684V39.3244C237.911 39.2165 237.93 39.1092 237.97 39.0089C238.01 38.9085 238.07 38.8172 238.145 38.7402C238.221 38.6631 238.311 38.6019 238.411 38.5602C238.51 38.5184 238.617 38.4969 238.725 38.4969C238.942 38.4969 239.15 38.582 239.305 38.734C239.46 38.886 239.549 39.0928 239.553 39.3097V47.5702C239.557 47.7878 239.49 48.0007 239.361 48.1761C239.295 48.2514 239.213 48.3106 239.121 48.3491C239.028 48.3875 238.928 48.4042 238.829 48.3977C238.653 48.4119 238.477 48.3705 238.326 48.2795C238.171 48.1659 238.032 48.0316 237.912 47.8805L232.992 41.4819V47.5554C233.014 47.6689 233.009 47.7861 232.977 47.8972C232.945 48.0083 232.886 48.11 232.807 48.194C232.727 48.2779 232.629 48.3415 232.519 48.3795C232.41 48.4176 232.293 48.4289 232.179 48.4125Z" fill="#1E1E1E"/>
<path d="M242.535 48.4141C242.328 48.4394 242.119 48.3823 241.953 48.2552C241.788 48.1281 241.678 47.9411 241.649 47.7343C241.634 47.6562 241.634 47.576 241.649 47.4979V39.3851C241.645 39.2686 241.664 39.1525 241.705 39.0435C241.746 38.9344 241.808 38.8344 241.887 38.7493C241.967 38.6642 242.063 38.5957 242.169 38.5476C242.275 38.4994 242.389 38.4727 242.506 38.4689C242.74 38.4648 242.967 38.5519 243.138 38.7119C243.309 38.8719 243.411 39.0921 243.422 39.326V47.4979C243.448 47.7065 243.394 47.9173 243.271 48.0875C243.147 48.2576 242.964 48.3744 242.757 48.4141C242.683 48.4215 242.609 48.4215 242.535 48.4141Z" fill="#1E1E1E"/>
<path d="M246.364 48.4127C246.267 48.425 246.168 48.418 246.074 48.3919C245.979 48.3658 245.891 48.3212 245.814 48.2607C245.737 48.2002 245.673 48.125 245.625 48.0395C245.578 47.9539 245.547 47.8598 245.536 47.7625C245.522 47.6943 245.522 47.6238 245.536 47.5556V39.3541C245.527 39.2364 245.542 39.1181 245.581 39.0063C245.619 38.8945 245.679 38.7917 245.758 38.7039C245.827 38.6283 245.912 38.5691 246.006 38.5307C246.101 38.4923 246.203 38.4758 246.305 38.4823C246.474 38.471 246.643 38.5068 246.793 38.5857C246.931 38.7041 247.055 38.8379 247.162 38.9847L252.083 45.3685V39.3246C252.067 39.2077 252.077 39.0887 252.111 38.9757C252.145 38.8627 252.202 38.7583 252.28 38.6695C252.358 38.5807 252.454 38.5095 252.561 38.4607C252.668 38.412 252.785 38.3867 252.903 38.3867C253.021 38.3867 253.138 38.412 253.245 38.4607C253.353 38.5095 253.448 38.5807 253.526 38.6695C253.604 38.7583 253.661 38.8627 253.695 38.9757C253.729 39.0887 253.739 39.2077 253.723 39.3246V47.5851C253.735 47.8037 253.667 48.0191 253.531 48.191C253.467 48.2643 253.387 48.3223 253.298 48.3607C253.208 48.3991 253.111 48.4168 253.014 48.4127C252.834 48.4251 252.654 48.384 252.497 48.2945C252.349 48.1767 252.215 48.0429 252.098 47.8955L247.177 41.4969V47.5704C247.177 48.1319 246.911 48.4127 246.364 48.4127Z" fill="#1E1E1E"/>
<path d="M260.521 48.4417C259.573 48.4719 258.633 48.2635 257.787 47.8358C257.069 47.4362 256.483 46.8352 256.103 46.1068C255.719 45.2725 255.521 44.3651 255.521 43.4469C255.521 42.5287 255.719 41.6213 256.103 40.787C256.491 40.0539 257.087 39.4523 257.817 39.058C258.642 38.6302 259.563 38.4216 260.491 38.4521C261.014 38.4527 261.534 38.5122 262.043 38.6295C262.568 38.7564 263.068 38.9713 263.521 39.2649C263.611 39.3128 263.69 39.38 263.751 39.4617C263.812 39.5435 263.855 39.6377 263.875 39.7378C263.905 39.9296 263.874 40.126 263.787 40.2993C263.695 40.4656 263.549 40.5959 263.373 40.6688C263.271 40.7003 263.163 40.7074 263.058 40.6894C262.952 40.6715 262.853 40.6289 262.767 40.5653C262.434 40.3736 262.076 40.2293 261.703 40.1368C261.312 40.0368 260.91 39.9871 260.506 39.989C260.075 39.9593 259.642 40.0246 259.239 40.1804C258.835 40.3361 258.471 40.5785 258.171 40.8904C257.598 41.62 257.314 42.5356 257.373 43.4617C257.31 44.3952 257.6 45.3184 258.186 46.0477C258.502 46.3561 258.881 46.5934 259.296 46.7438C259.712 46.8941 260.154 46.9541 260.595 46.9196C260.905 46.9488 261.216 46.9488 261.526 46.9196C261.847 46.8755 262.164 46.8013 262.472 46.6979V44.3779H260.994C260.521 44.3779 260.285 44.1562 260.285 43.7129C260.285 43.2696 260.521 43.0627 260.994 43.0627H263.27C263.438 43.0415 263.607 43.0868 263.743 43.1889C263.878 43.291 263.968 43.4419 263.994 43.6095V47.1265C264.017 47.2991 263.979 47.4745 263.888 47.6227C263.796 47.7708 263.656 47.8827 263.491 47.9392C262.541 48.2705 261.542 48.4403 260.536 48.4417H260.521Z" fill="#1E1E1E"/>
</svg>
